<?xml version="1.0" encoding="UTF-8"?>
<!DOCTYPE svg PUBLIC "-//W3C//DTD SVG 1.1//EN" "http://www.w3.org/Graphics/SVG/1.1/DTD/svg11.dtd">
<svg xmlns="http://www.w3.org/2000/svg" version="1.1" width="488px" height="147px" style="shape-rendering:geometricPrecision; text-rendering:geometricPrecision; image-rendering:optimizeQuality; fill-rule:evenodd; clip-rule:evenodd" xmlns:xlink="http://www.w3.org/1999/xlink">
<g><path style="opacity:1" fill="#fdfdfd" d="M -0.5,-0.5 C 162.167,-0.5 324.833,-0.5 487.5,-0.5C 487.5,48.5 487.5,97.5 487.5,146.5C 324.833,146.5 162.167,146.5 -0.5,146.5C -0.5,97.5 -0.5,48.5 -0.5,-0.5 Z"/></g>
<g><path style="opacity:1" fill="#133343" d="M 142.5,51.5 C 143.167,55.1667 143.833,58.8333 144.5,62.5C 142.982,68.6663 141.649,74.9997 140.5,81.5C 140.5,78.1667 140.5,74.8333 140.5,71.5C 141.069,57.8734 137.069,45.8734 128.5,35.5C 126.888,32.462 124.888,29.6287 122.5,27C 99.4099,6.91294 73.7432,2.91294 45.5,15C 43.4156,15.6972 41.7489,16.8639 40.5,18.5C 32.1453,23.5213 25.4787,30.188 20.5,38.5C 15.3262,44.8601 12.3262,52.1934 11.5,60.5C 10.5773,64.0641 10.244,67.7307 10.5,71.5C 10.5,75.1667 10.5,78.8333 10.5,82.5C 18.8333,82.5 27.1667,82.5 35.5,82.5C 27.0985,83.1798 18.5985,83.8465 10,84.5C 9.83333,84.8333 9.66667,85.1667 9.5,85.5C 17.4723,86.4977 25.4723,86.831 33.5,86.5C 33.3338,92.5092 33.5005,98.5092 34,104.5C 34.3333,104.833 34.6667,105.167 35,105.5C 35.1909,103.292 35.6909,101.292 36.5,99.5C 36.3345,103.514 36.5012,107.514 37,111.5C 38,112.833 39,112.833 40,111.5C 40.4974,108.854 40.6641,106.187 40.5,103.5C 63.8333,103.5 87.1667,103.5 110.5,103.5C 110.336,106.187 110.503,108.854 111,111.5C 112.011,112.337 113.178,112.67 114.5,112.5C 114.5,108.167 114.5,103.833 114.5,99.5C 115.166,103.684 115.833,108.018 116.5,112.5C 117.167,104.01 117.833,95.6763 118.5,87.5C 125.321,86.3454 132.321,86.1787 139.5,87C 140.191,88.0674 140.691,89.2341 141,90.5C 142.03,88.6536 143.196,86.9869 144.5,85.5C 138.573,112.931 122.24,131.098 95.5,140C 54.7902,148.063 25.9569,133.229 9,95.5C -0.543867,62.46 8.28947,35.6267 35.5,15C 68.3358,-3.83038 98.8358,-0.663708 127,24.5C 134.24,32.3143 139.407,41.3143 142.5,51.5 Z"/></g>
<g><path style="opacity:1" fill="#0b415e" d="M 46.5,26.5 C 48.3325,27.2485 49.9991,28.2485 51.5,29.5C 54.8931,31.073 56.2264,33.7396 55.5,37.5C 54.1667,37.5 52.8333,37.5 51.5,37.5C 50.1344,30.922 46.6344,29.2553 41,32.5C 41.266,35.9008 39.766,37.5674 36.5,37.5C 36.1193,36.0689 35.1193,35.2355 33.5,35C 35.8162,32.7522 38.1496,30.4189 40.5,28C 42.3453,26.872 44.3453,26.372 46.5,26.5 Z"/></g>
<g><path style="opacity:1" fill="#e5f4f6" d="M 82.5,35.5 C 82.5,37.5 82.5,39.5 82.5,41.5C 79.6703,41.6941 77.0037,42.3608 74.5,43.5C 74.5,41.5 74.5,39.5 74.5,37.5C 74.6646,34.4816 74.498,31.4816 74,28.5C 69.6705,25.8823 68.5038,22.2156 70.5,17.5C 79.0121,13.6642 82.8455,16.3308 82,25.5C 78.5056,27.4734 77.0056,30.4734 77.5,34.5C 79.4147,34.2155 81.0813,34.5489 82.5,35.5 Z"/></g>
<g><path style="opacity:1" fill="#0c89b9" d="M 128.5,35.5 C 126.947,37.385 124.947,38.385 122.5,38.5C 121.833,38.5 121.5,38.1667 121.5,37.5C 120.976,34.8122 119.309,33.3122 116.5,33C 113.766,28.2258 109.766,26.2258 104.5,27C 103.956,27.7172 103.289,28.2172 102.5,28.5C 102.265,27.9033 101.765,27.5699 101,27.5C 97.7487,28.9824 94.4154,30.3157 91,31.5C 90,31.1667 89,30.8333 88,30.5C 87.3333,32.5 86.6667,34.5 86,36.5C 85.3292,37.2524 84.4959,37.5858 83.5,37.5C 83.6716,36.5084 83.3382,35.8417 82.5,35.5C 81.0813,34.5489 79.4147,34.2155 77.5,34.5C 77.0056,30.4734 78.5056,27.4734 82,25.5C 82.8455,16.3308 79.0121,13.6642 70.5,17.5C 68.7675,20.0389 67.7675,23.0389 67.5,26.5C 65.604,27.4656 63.604,27.7989 61.5,27.5C 61.9746,24.9179 61.3079,22.9179 59.5,21.5C 57.0274,21.0882 55.6941,22.0882 55.5,24.5C 54.5264,26.48 53.193,28.1467 51.5,29.5C 49.9991,28.2485 48.3325,27.2485 46.5,26.5C 46.0472,25.5416 45.3805,24.7083 44.5,24C 44.8333,23.6667 45.1667,23.3333 45.5,23C 44.451,22.5078 43.451,22.6744 42.5,23.5C 41.269,22.3493 41.269,21.1827 42.5,20C 41.9558,19.2828 41.2891,18.7828 40.5,18.5C 41.7489,16.8639 43.4156,15.6972 45.5,15C 73.7432,2.91294 99.4099,6.91294 122.5,27C 124.888,29.6287 126.888,32.462 128.5,35.5 Z"/></g>
<g><path style="opacity:1" fill="#daf3f5" d="M 92.5,21.5 C 93.8333,21.5 95.1667,21.5 96.5,21.5C 96.8841,23.6648 96.2174,25.3315 94.5,26.5C 92.7826,25.3315 92.1159,23.6648 92.5,21.5 Z"/></g>
<g><path style="opacity:1" fill="#d6f1f5" d="M 59.5,21.5 C 60.2341,22.7079 60.5674,24.0413 60.5,25.5C 58.7085,25.634 57.0418,25.3007 55.5,24.5C 55.6941,22.0882 57.0274,21.0882 59.5,21.5 Z"/></g>
<g><path style="opacity:1" fill="#2b7099" d="M 74.5,19.5 C 75.8333,19.5 77.1667,19.5 78.5,19.5C 78.5,21.1667 78.5,22.8333 78.5,24.5C 72.9636,25.3385 71.6303,23.6719 74.5,19.5 Z"/></g>
<g><path style="opacity:1" fill="#138db3" d="M 70.5,17.5 C 68.5038,22.2156 69.6705,25.8823 74,28.5C 74.498,31.4816 74.6646,34.4816 74.5,37.5C 74.0769,40.2471 72.4102,41.5805 69.5,41.5C 66.7666,41.032 64.1,40.3653 61.5,39.5C 61.1667,39.5 60.8333,39.5 60.5,39.5C 59.3646,37.7868 57.698,37.1201 55.5,37.5C 56.2264,33.7396 54.8931,31.073 51.5,29.5C 53.193,28.1467 54.5264,26.48 55.5,24.5C 57.0418,25.3007 58.7085,25.634 60.5,25.5C 60.5674,24.0413 60.2341,22.7079 59.5,21.5C 61.3079,22.9179 61.9746,24.9179 61.5,27.5C 63.604,27.7989 65.604,27.4656 67.5,26.5C 67.7675,23.0389 68.7675,20.0389 70.5,17.5 Z"/></g>
<g><path style="opacity:1" fill="#0d3b54" d="M 121.5,37.5 C 118.5,37.5 115.5,37.5 112.5,37.5C 111.977,30.8104 108.81,29.1438 103,32.5C 103.209,36.4592 101.375,38.1258 97.5,37.5C 97.0825,36.7784 96.4158,36.2784 95.5,36C 97.3329,33.0015 99.6662,30.5015 102.5,28.5C 103.289,28.2172 103.956,27.7172 104.5,27C 109.766,26.2258 113.766,28.2258 116.5,33C 119.309,33.3122 120.976,34.8122 121.5,37.5 Z"/></g>
<g><path style="opacity:1" fill="#0694b7" d="M 102.5,28.5 C 99.6662,30.5015 97.3329,33.0015 95.5,36C 96.4158,36.2784 97.0825,36.7784 97.5,37.5C 95.901,37.2322 94.5676,37.5655 93.5,38.5C 90.5818,40.6934 87.2485,41.6934 83.5,41.5C 83.5,40.1667 83.5,38.8333 83.5,37.5C 84.4959,37.5858 85.3292,37.2524 86,36.5C 86.6667,34.5 87.3333,32.5 88,30.5C 89,30.8333 90,31.1667 91,31.5C 94.4154,30.3157 97.7487,28.9824 101,27.5C 101.765,27.5699 102.265,27.9033 102.5,28.5 Z"/></g>
<g><path style="opacity:1" fill="#eef5f6" d="M 121.5,37.5 C 121.5,38.1667 121.833,38.5 122.5,38.5C 122.5,39.5 122.5,40.5 122.5,41.5C 112.833,41.5 103.167,41.5 93.5,41.5C 93.5,40.5 93.5,39.5 93.5,38.5C 94.5676,37.5655 95.901,37.2322 97.5,37.5C 101.375,38.1258 103.209,36.4592 103,32.5C 108.81,29.1438 111.977,30.8104 112.5,37.5C 115.5,37.5 118.5,37.5 121.5,37.5 Z"/></g>
<g><path style="opacity:1" fill="#1c99be" d="M 40.5,18.5 C 41.2891,18.7828 41.9558,19.2828 42.5,20C 41.269,21.1827 41.269,22.3493 42.5,23.5C 43.451,22.6744 44.451,22.5078 45.5,23C 45.1667,23.3333 44.8333,23.6667 44.5,24C 45.3805,24.7083 46.0472,25.5416 46.5,26.5C 44.3453,26.372 42.3453,26.872 40.5,28C 38.1496,30.4189 35.8162,32.7522 33.5,35C 35.1193,35.2355 36.1193,36.0689 36.5,37.5C 34.8333,37.5 33.1667,37.5 31.5,37.5C 30.5,37.5 29.5,37.5 28.5,37.5C 28.5,38.5 28.5,39.5 28.5,40.5C 25.4532,41.1446 23.2865,40.1446 22,37.5C 21.6174,38.056 21.1174,38.3893 20.5,38.5C 25.4787,30.188 32.1453,23.5213 40.5,18.5 Z"/></g>
<g><path style="opacity:1" fill="#eef8f8" d="M 55.5,37.5 C 57.698,37.1201 59.3646,37.7868 60.5,39.5C 50.8893,41.4743 40.8893,42.141 30.5,41.5C 30.4326,40.0413 30.7659,38.7079 31.5,37.5C 33.1667,37.5 34.8333,37.5 36.5,37.5C 39.766,37.5674 41.266,35.9008 41,32.5C 46.6344,29.2553 50.1344,30.922 51.5,37.5C 52.8333,37.5 54.1667,37.5 55.5,37.5 Z"/></g>
<g><path style="opacity:1" fill="#37b2c4" d="M 82.5,35.5 C 83.3382,35.8417 83.6716,36.5084 83.5,37.5C 83.5,38.8333 83.5,40.1667 83.5,41.5C 87.2485,41.6934 90.5818,40.6934 93.5,38.5C 93.5,39.5 93.5,40.5 93.5,41.5C 103.167,41.5 112.833,41.5 122.5,41.5C 122.5,40.5 122.5,39.5 122.5,38.5C 124.947,38.385 126.947,37.385 128.5,35.5C 137.069,45.8734 141.069,57.8734 140.5,71.5C 130.167,71.5 119.833,71.5 109.5,71.5C 109.827,66.456 109.494,61.456 108.5,56.5C 105.424,54.2129 102.091,53.8796 98.5,55.5C 92.9043,54.0167 87.2377,53.0167 81.5,52.5C 79.422,51.8991 77.2554,51.5657 75,51.5C 64.966,53.7215 54.7993,54.8881 44.5,55C 43.6667,55.8333 42.8333,56.6667 42,57.5C 41.5012,61.4862 41.3345,65.4862 41.5,69.5C 40.6753,65.3528 40.1753,61.0195 40,56.5C 37.9747,58.6931 35.4747,59.6931 32.5,59.5C 34.0671,55.5664 32.7338,53.733 28.5,54C 27.944,54.3826 27.6107,54.8826 27.5,55.5C 26.7839,57.5563 26.1172,59.723 25.5,62C 26.8882,62.8893 26.7215,63.3893 25,63.5C 24.5,63.3333 24,63.1667 23.5,63C 24.5171,61.9505 24.6838,60.7839 24,59.5C 22.7438,58.9698 21.2438,58.9698 19.5,59.5C 18.8333,58.1667 18.1667,56.8333 17.5,55.5C 15.4293,57.1851 13.4293,58.8518 11.5,60.5C 12.3262,52.1934 15.3262,44.8601 20.5,38.5C 21.1174,38.3893 21.6174,38.056 22,37.5C 23.2865,40.1446 25.4532,41.1446 28.5,40.5C 28.5,39.5 28.5,38.5 28.5,37.5C 29.5,37.5 30.5,37.5 31.5,37.5C 30.7659,38.7079 30.4326,40.0413 30.5,41.5C 40.6532,42.4942 50.9865,42.8276 61.5,42.5C 61.5,41.5 61.5,40.5 61.5,39.5C 64.1,40.3653 66.7666,41.032 69.5,41.5C 72.4102,41.5805 74.0769,40.2471 74.5,37.5C 74.5,39.5 74.5,41.5 74.5,43.5C 77.0037,42.3608 79.6703,41.6941 82.5,41.5C 82.5,39.5 82.5,37.5 82.5,35.5 Z"/></g>
<g><path style="opacity:1" fill="#97d2de" d="M 60.5,39.5 C 60.8333,39.5 61.1667,39.5 61.5,39.5C 61.5,40.5 61.5,41.5 61.5,42.5C 50.9865,42.8276 40.6532,42.4942 30.5,41.5C 40.8893,42.141 50.8893,41.4743 60.5,39.5 Z"/></g>
<g><path style="opacity:1" fill="#070707" d="M 176.5,51.5 C 181.485,51.1481 186.319,51.8148 191,53.5C 198.556,55.863 199.222,59.1963 193,63.5C 189.521,61.591 185.854,60.2577 182,59.5C 175.938,60.1836 174.438,63.0169 177.5,68C 184.112,70.0902 190.445,72.7568 196.5,76C 202.15,86.3838 199.484,93.7171 188.5,98C 180.306,99.8971 173.139,98.0637 167,92.5C 166.08,89.6917 166.913,87.5251 169.5,86C 173.964,87.7101 178.631,89.2101 183.5,90.5C 187.649,90.6874 189.983,88.6874 190.5,84.5C 190.41,82.5749 189.41,81.4083 187.5,81C 182.44,79.4857 177.44,77.8191 172.5,76C 163.506,66.1087 164.84,57.9421 176.5,51.5 Z"/></g>
<g><path style="opacity:1" fill="#070707" d="M 205.5,51.5 C 216.505,51.3335 227.505,51.5002 238.5,52C 240.648,54.0749 240.982,56.4082 239.5,59C 235.3,60.3674 230.967,60.8674 226.5,60.5C 226.667,71.8382 226.5,83.1716 226,94.5C 225.023,98.4394 222.689,99.4394 219,97.5C 217.582,85.2282 217.082,72.8949 217.5,60.5C 213.486,60.6655 209.486,60.4988 205.5,60C 202.899,57.1705 202.899,54.3371 205.5,51.5 Z"/></g>
<g><path style="opacity:1" fill="#090909" d="M 259.5,50.5 C 261.39,50.2965 262.89,50.9632 264,52.5C 271.789,66.8847 277.789,81.8847 282,97.5C 280.534,99.3249 278.701,99.8249 276.5,99C 273.76,96.1174 271.76,92.784 270.5,89C 263.808,88.1691 257.142,88.3358 250.5,89.5C 249.211,92.5802 247.545,95.4136 245.5,98C 239.92,99.261 238.087,97.0943 240,91.5C 244.943,78.6704 250.277,66.0038 256,53.5C 257.145,52.3636 258.312,51.3636 259.5,50.5 Z"/></g>
<g><path style="opacity:1" fill="#090909" d="M 284.5,50.5 C 287.263,50.7438 289.429,52.0771 291,54.5C 294.333,59.8333 297.667,65.1667 301,70.5C 305.378,64.2447 309.878,58.078 314.5,52C 317.363,51.035 319.696,51.7017 321.5,54C 316.968,62.9 311.801,71.4 306,79.5C 305.667,84.8333 305.333,90.1667 305,95.5C 303.419,98.5534 301.086,99.22 298,97.5C 297.667,91.5 297.333,85.5 297,79.5C 291.5,71.1667 286,62.8333 280.5,54.5C 281.549,52.7844 282.882,51.4511 284.5,50.5 Z"/></g>
<g><path style="opacity:1" fill="#121212" d="M 331.5,50.5 C 333.39,50.2965 334.89,50.9632 336,52.5C 336.499,58.4908 336.666,64.4908 336.5,70.5C 343.167,70.5 349.833,70.5 356.5,70.5C 356.334,65.1563 356.501,59.8229 357,54.5C 359.135,49.6747 361.801,49.3414 365,53.5C 365.667,67.8333 365.667,82.1667 365,96.5C 361.801,100.659 359.135,100.325 357,95.5C 356.501,90.1771 356.334,84.8437 356.5,79.5C 349.833,79.5 343.167,79.5 336.5,79.5C 336.666,85.1764 336.499,90.8431 336,96.5C 333.16,99.3707 330.826,99.0374 329,95.5C 328.167,81.1551 328.334,66.8217 329.5,52.5C 330.522,52.1445 331.189,51.4778 331.5,50.5 Z"/></g>
<g><path style="opacity:1" fill="#0e0e0e" d="M 378.5,50.5 C 380.592,50.5614 382.092,51.5614 383,53.5C 383.07,64.2389 383.737,74.9055 385,85.5C 386.664,89.0842 389.497,90.7508 393.5,90.5C 398.033,90.6507 401.2,88.6507 403,84.5C 403.333,74.1667 403.667,63.8333 404,53.5C 406.418,51.3199 409.084,50.9865 412,52.5C 412.667,62.5 412.667,72.5 412,82.5C 409.252,94.459 401.752,99.959 389.5,99C 384.123,97.3981 379.956,94.2315 377,89.5C 375.443,77.5492 375.109,65.5492 376,53.5C 377.045,52.6266 377.878,51.6266 378.5,50.5 Z"/></g>
<g><path style="opacity:1" fill="#070707" d="M 423.5,51.5 C 431.553,51.2252 439.553,51.7252 447.5,53C 454.666,55.8341 457.166,61.0008 455,68.5C 454.028,70.3049 452.861,71.9716 451.5,73.5C 459.711,81.1789 459.378,88.6789 450.5,96C 448.285,97.0438 445.952,97.7105 443.5,98C 436.586,98.8112 429.752,98.6445 423,97.5C 422.184,82.0923 422.351,66.759 423.5,51.5 Z"/></g>
<g><path style="opacity:1" fill="#1d1d1d" d="M 467.5,47.5 C 473.82,47.3196 476.32,50.3196 475,56.5C 470.927,60.6185 467.26,60.2852 464,55.5C 462.78,51.7069 463.947,49.0402 467.5,47.5 Z"/></g>
<g><path style="opacity:1" fill="#e2e2e2" d="M 468.5,48.5 C 471.292,48.4521 473.125,49.7854 474,52.5C 474.513,55.8266 473.013,57.4933 469.5,57.5C 464.512,55.1787 464.179,52.1787 468.5,48.5 Z"/></g>
<g><path style="opacity:1" fill="#313131" d="M 468.5,50.5 C 472.071,50.4077 473.238,52.0743 472,55.5C 469.694,56.5815 468.194,55.7482 467.5,53C 467.743,52.0979 468.077,51.2646 468.5,50.5 Z"/></g>
<g><path style="opacity:1" fill="#e1f6f5" d="M 32.5,59.5 C 29.0504,60.2436 27.3838,58.9103 27.5,55.5C 27.6107,54.8826 27.944,54.3826 28.5,54C 32.7338,53.733 34.0671,55.5664 32.5,59.5 Z"/></g>
<g><path style="opacity:1" fill="#203947" d="M 81.5,52.5 C 87.2377,53.0167 92.9043,54.0167 98.5,55.5C 102.091,53.8796 105.424,54.2129 108.5,56.5C 109.494,61.456 109.827,66.456 109.5,71.5C 109.34,73.1992 109.506,74.8659 110,76.5C 111.812,78.3003 113.645,79.9669 115.5,81.5C 111.833,79.8333 110.833,80.8333 112.5,84.5C 110.427,82.4202 108.093,80.7536 105.5,79.5C 85.6736,78.5029 65.6736,78.1695 45.5,78.5C 65.6707,77.8333 86.004,77.1667 106.5,76.5C 107.738,73.5306 108.405,70.364 108.5,67C 108.333,64.1667 108.167,61.3333 108,58.5C 107.586,58.0426 107.086,57.7093 106.5,57.5C 105.671,62.8025 105.171,68.1358 105,73.5C 104.586,73.9574 104.086,74.2907 103.5,74.5C 102.571,73.3112 102.238,71.9778 102.5,70.5C 103.117,70.6107 103.617,70.944 104,71.5C 104.499,67.5138 104.666,63.5138 104.5,59.5C 95.071,60.1932 86.071,58.8598 77.5,55.5C 78.8333,55.5 80.1667,55.5 81.5,55.5C 81.5,54.5 81.5,53.5 81.5,52.5 Z"/></g>
<g><path style="opacity:1" fill="#daf1f2" d="M 119.5,54.5 C 124.123,53.4082 125.956,55.0748 125,59.5C 120.325,61.334 118.492,59.6673 119.5,54.5 Z"/></g>
<g><path style="opacity:1" fill="#49bec9" d="M 27.5,55.5 C 27.3838,58.9103 29.0504,60.2436 32.5,59.5C 35.4747,59.6931 37.9747,58.6931 40,56.5C 40.1753,61.0195 40.6753,65.3528 41.5,69.5C 41.8064,72.3854 41.4731,75.0521 40.5,77.5C 40.5,75.5 40.5,73.5 40.5,71.5C 36.5,71.5 32.5,71.5 28.5,71.5C 27.5009,68.8259 25.8342,68.1592 23.5,69.5C 19.4865,71.3342 15.1532,72.0008 10.5,71.5C 10.244,67.7307 10.5773,64.0641 11.5,60.5C 13.4293,58.8518 15.4293,57.1851 17.5,55.5C 18.1667,56.8333 18.8333,58.1667 19.5,59.5C 21.2438,58.9698 22.7438,58.9698 24,59.5C 24.6838,60.7839 24.5171,61.9505 23.5,63C 24,63.1667 24.5,63.3333 25,63.5C 26.7215,63.3893 26.8882,62.8893 25.5,62C 26.1172,59.723 26.7839,57.5563 27.5,55.5 Z"/></g>
<g><path style="opacity:1" fill="#d1a686" d="M 77.5,55.5 C 86.071,58.8598 95.071,60.1932 104.5,59.5C 104.666,63.5138 104.499,67.5138 104,71.5C 103.617,70.944 103.117,70.6107 102.5,70.5C 100.866,67.1681 98.1991,65.0015 94.5,64C 87.2771,62.2798 80.9438,63.7798 75.5,68.5C 68.8807,63.3062 61.5474,62.1395 53.5,65C 50.7272,67.3834 48.5605,70.2167 47,73.5C 46.1711,68.467 46.3377,63.467 47.5,58.5C 51.1078,59.5932 54.7745,59.7599 58.5,59C 64.7227,57.1852 71.0561,56.0186 77.5,55.5 Z"/></g>
<g><path style="opacity:1" fill="#f7f7f7" d="M 430.5,59.5 C 435.504,59.8893 440.504,60.3893 445.5,61C 448.359,64.7605 447.692,67.7605 443.5,70C 439.179,70.499 434.846,70.6657 430.5,70.5C 430.5,66.8333 430.5,63.1667 430.5,59.5 Z"/></g>
<g><path style="opacity:1" fill="#eaeaea" d="M 259.5,64.5 C 262.845,69.2074 265.178,74.5407 266.5,80.5C 262.5,80.5 258.5,80.5 254.5,80.5C 255.764,75.04 257.431,69.7067 259.5,64.5 Z"/></g>
<g><path style="opacity:1" fill="#e2f7f5" d="M 28.5,71.5 C 27.6857,73.2726 26.3524,73.7726 24.5,73C 23.6634,71.9887 23.33,70.8221 23.5,69.5C 25.8342,68.1592 27.5009,68.8259 28.5,71.5 Z"/></g>
<g><path style="opacity:1" fill="#7b858c" d="M 142.5,51.5 C 144.335,54.842 145.502,58.5086 146,62.5C 146.818,68.3487 146.652,74.0154 145.5,79.5C 145.687,73.7876 145.354,68.1209 144.5,62.5C 143.833,58.8333 143.167,55.1667 142.5,51.5 Z"/></g>
<g><path style="opacity:1" fill="#f5f5f5" d="M 430.5,78.5 C 435.844,78.334 441.177,78.5006 446.5,79C 449.077,82.4046 449.077,85.738 446.5,89C 441.246,90.2712 435.913,90.7712 430.5,90.5C 430.5,86.5 430.5,82.5 430.5,78.5 Z"/></g>
<g><path style="opacity:1" fill="#72d8d8" d="M 23.5,69.5 C 23.33,70.8221 23.6634,71.9887 24.5,73C 26.3524,73.7726 27.6857,73.2726 28.5,71.5C 32.5,71.5 36.5,71.5 40.5,71.5C 40.5,73.5 40.5,75.5 40.5,77.5C 38.5,78.8333 36.8333,80.5 35.5,82.5C 27.1667,82.5 18.8333,82.5 10.5,82.5C 10.5,78.8333 10.5,75.1667 10.5,71.5C 15.1532,72.0008 19.4865,71.3342 23.5,69.5 Z"/></g>
<g><path style="opacity:1" fill="#0e2a3d" d="M 81.5,52.5 C 81.5,53.5 81.5,54.5 81.5,55.5C 80.1667,55.5 78.8333,55.5 77.5,55.5C 71.0561,56.0186 64.7227,57.1852 58.5,59C 54.7745,59.7599 51.1078,59.5932 47.5,58.5C 46.3377,63.467 46.1711,68.467 47,73.5C 48.5605,70.2167 50.7272,67.3834 53.5,65C 61.5474,62.1395 68.8807,63.3062 75.5,68.5C 80.9438,63.7798 87.2771,62.2798 94.5,64C 98.1991,65.0015 100.866,67.1681 102.5,70.5C 102.238,71.9778 102.571,73.3112 103.5,74.5C 104.086,74.2907 104.586,73.9574 105,73.5C 105.171,68.1358 105.671,62.8025 106.5,57.5C 107.086,57.7093 107.586,58.0426 108,58.5C 108.167,61.3333 108.333,64.1667 108.5,67C 108.405,70.364 107.738,73.5306 106.5,76.5C 86.004,77.1667 65.6707,77.8333 45.5,78.5C 43.5,79.8333 41.8333,81.5 40.5,83.5C 39.5,83.8333 38.8333,84.5 38.5,85.5C 37.0346,88.6555 37.7013,91.4888 40.5,94C 63.8333,94.6667 87.1667,94.6667 110.5,94C 113.299,91.4888 113.965,88.6555 112.5,85.5C 112.5,85.1667 112.5,84.8333 112.5,84.5C 110.833,80.8333 111.833,79.8333 115.5,81.5C 119.276,82.8248 123.443,83.4915 128,83.5C 132.347,83.499 136.514,83.1657 140.5,82.5C 140.5,82.1667 140.5,81.8333 140.5,81.5C 141.649,74.9997 142.982,68.6663 144.5,62.5C 145.354,68.1209 145.687,73.7876 145.5,79.5C 145.795,81.7354 145.461,83.7354 144.5,85.5C 143.196,86.9869 142.03,88.6536 141,90.5C 140.691,89.2341 140.191,88.0674 139.5,87C 132.321,86.1787 125.321,86.3454 118.5,87.5C 117.833,95.6763 117.167,104.01 116.5,112.5C 115.833,108.018 115.166,103.684 114.5,99.5C 114.631,98.6236 114.298,97.9569 113.5,97.5C 100.877,98.1575 88.2103,98.4909 75.5,98.5C 62.6781,98.4809 50.0115,97.8142 37.5,96.5C 36.6143,97.325 36.281,98.325 36.5,99.5C 35.6909,101.292 35.1909,103.292 35,105.5C 34.6667,105.167 34.3333,104.833 34,104.5C 33.5005,98.5092 33.3338,92.5092 33.5,86.5C 25.4723,86.831 17.4723,86.4977 9.5,85.5C 9.66667,85.1667 9.83333,84.8333 10,84.5C 18.5985,83.8465 27.0985,83.1798 35.5,82.5C 36.8333,80.5 38.5,78.8333 40.5,77.5C 41.4731,75.0521 41.8064,72.3854 41.5,69.5C 41.3345,65.4862 41.5012,61.4862 42,57.5C 42.8333,56.6667 43.6667,55.8333 44.5,55C 54.7993,54.8881 64.966,53.7215 75,51.5C 77.2554,51.5657 79.422,51.8991 81.5,52.5 Z"/></g>
<g><path style="opacity:1" fill="#ceebed" d="M 38.5,85.5 C 38.3433,86.8734 38.51,88.2068 39,89.5C 39.5,89 40,88.5 40.5,88C 64.2095,87.1771 87.8761,87.3437 111.5,88.5C 112.386,87.675 112.719,86.675 112.5,85.5C 113.965,88.6555 113.299,91.4888 110.5,94C 87.1667,94.6667 63.8333,94.6667 40.5,94C 37.7013,91.4888 37.0346,88.6555 38.5,85.5 Z"/></g>
<g><path style="opacity:1" fill="#28656f" d="M 115.5,81.5 C 123.748,82.4686 132.082,82.8019 140.5,82.5C 136.514,83.1657 132.347,83.499 128,83.5C 123.443,83.4915 119.276,82.8248 115.5,81.5 Z"/></g>
<g><path style="opacity:1" fill="#fafcfd" d="M 105.5,79.5 C 108.093,80.7536 110.427,82.4202 112.5,84.5C 112.5,84.8333 112.5,85.1667 112.5,85.5C 112.719,86.675 112.386,87.675 111.5,88.5C 87.8761,87.3437 64.2095,87.1771 40.5,88C 40,88.5 39.5,89 39,89.5C 38.51,88.2068 38.3433,86.8734 38.5,85.5C 38.8333,84.5 39.5,83.8333 40.5,83.5C 42.5441,82.9688 44.2107,81.8022 45.5,80C 65.4972,79.5 85.4972,79.3334 105.5,79.5 Z"/></g>
<g><path style="opacity:1" fill="#b4c5c9" d="M 45.5,78.5 C 65.6736,78.1695 85.6736,78.5029 105.5,79.5C 85.4972,79.3334 65.4972,79.5 45.5,80C 44.2107,81.8022 42.5441,82.9688 40.5,83.5C 41.8333,81.5 43.5,79.8333 45.5,78.5 Z"/></g>
<g><path style="opacity:1" fill="#6cd4d6" d="M 109.5,71.5 C 119.833,71.5 130.167,71.5 140.5,71.5C 140.5,74.8333 140.5,78.1667 140.5,81.5C 140.5,81.8333 140.5,82.1667 140.5,82.5C 132.082,82.8019 123.748,82.4686 115.5,81.5C 113.645,79.9669 111.812,78.3003 110,76.5C 109.506,74.8659 109.34,73.1992 109.5,71.5 Z"/></g>
<g><path style="opacity:1" fill="#9dacb4" d="M 79.5,71.5 C 82.0866,72.8164 85.0866,73.483 88.5,73.5C 91.9134,73.483 94.9134,72.8164 97.5,71.5C 98.404,72.209 98.7373,73.209 98.5,74.5C 91.8333,74.5 85.1667,74.5 78.5,74.5C 78.2627,73.209 78.596,72.209 79.5,71.5 Z"/></g>
<g><path style="opacity:1" fill="#eff5f5" d="M 97.5,71.5 C 94.9134,72.8164 91.9134,73.483 88.5,73.5C 85.0866,73.483 82.0866,72.8164 79.5,71.5C 81.5764,68.2985 84.5764,66.9651 88.5,67.5C 92.4236,66.9651 95.4236,68.2985 97.5,71.5 Z"/></g>
<g><path style="opacity:1" fill="#e3eaed" d="M 57.5,67.5 C 61.1817,67.3347 64.8484,67.5014 68.5,68C 70.9229,69.5707 72.2562,71.7374 72.5,74.5C 66.1667,74.5 59.8333,74.5 53.5,74.5C 53.3433,73.1266 53.51,71.7932 54,70.5C 55.5185,69.8366 56.6851,68.8366 57.5,67.5 Z"/></g>
<g><path style="opacity:1" fill="#afe8da" d="M 118.5,87.5 C 125.167,87.5 131.833,87.5 138.5,87.5C 138.117,92.8174 136.617,97.8174 134,102.5C 131.08,108.081 127.414,113.081 123,117.5C 121.715,117.05 120.548,116.383 119.5,115.5C 118.502,106.19 118.168,96.8571 118.5,87.5 Z"/></g>
<g><path style="opacity:1" fill="#b5f0df" d="M 12.5,87.5 C 19.1667,87.5 25.8333,87.5 32.5,87.5C 32.8315,96.5246 32.4982,105.525 31.5,114.5C 30.452,115.383 29.2853,116.05 28,116.5C 19.7143,108.6 14.5476,98.9338 12.5,87.5 Z"/></g>
<g><path style="opacity:1" fill="#c4a183" d="M 114.5,99.5 C 114.5,103.833 114.5,108.167 114.5,112.5C 113.178,112.67 112.011,112.337 111,111.5C 110.503,108.854 110.336,106.187 110.5,103.5C 87.1667,103.5 63.8333,103.5 40.5,103.5C 40.6641,106.187 40.4974,108.854 40,111.5C 39,112.833 38,112.833 37,111.5C 36.5012,107.514 36.3345,103.514 36.5,99.5C 36.281,98.325 36.6143,97.325 37.5,96.5C 50.0115,97.8142 62.6781,98.4809 75.5,98.5C 88.2103,98.4909 100.877,98.1575 113.5,97.5C 114.298,97.9569 114.631,98.6236 114.5,99.5 Z"/></g>
<g><path style="opacity:1" fill="#0d4057" d="M 105.5,107.5 C 101.5,107.5 97.5,107.5 93.5,107.5C 90.3601,106.359 87.0267,106.192 83.5,107C 86.3926,108.149 89.3926,108.649 92.5,108.5C 93.1667,108.5 93.5,108.833 93.5,109.5C 87.3614,109.343 81.3614,108.343 75.5,106.5C 71.3674,106.799 67.3674,107.632 63.5,109C 59.1794,109.499 54.8461,109.666 50.5,109.5C 51.9516,108.698 53.6183,108.198 55.5,108C 51.8484,107.501 48.1817,107.335 44.5,107.5C 56.1336,106.05 67.9669,105.383 80,105.5C 87.1667,105.667 94.3333,105.833 101.5,106C 103.058,106.21 104.391,106.71 105.5,107.5 Z"/></g>
<g><path style="opacity:1" fill="#367995" d="M 93.5,107.5 C 92.8333,107.5 92.5,107.833 92.5,108.5C 89.3926,108.649 86.3926,108.149 83.5,107C 87.0267,106.192 90.3601,106.359 93.5,107.5 Z"/></g>
<g><path style="opacity:1" fill="#8bc6cf" d="M 44.5,107.5 C 48.1817,107.335 51.8484,107.501 55.5,108C 53.6183,108.198 51.9516,108.698 50.5,109.5C 48.7376,109.357 47.0709,109.691 45.5,110.5C 44.6143,109.675 44.281,108.675 44.5,107.5 Z"/></g>
<g><path style="opacity:1" fill="#76bac3" d="M 92.5,108.5 C 92.5,107.833 92.8333,107.5 93.5,107.5C 97.5,107.5 101.5,107.5 105.5,107.5C 106.434,108.568 106.768,109.901 106.5,111.5C 102.246,110.354 97.913,109.687 93.5,109.5C 93.5,108.833 93.1667,108.5 92.5,108.5 Z"/></g>
<g><path style="opacity:1" fill="#478284" d="M 94.5,114.5 C 79.5016,111.897 64.5016,111.897 49.5,114.5C 56.8519,112.14 64.5185,111.14 72.5,111.5C 76.5,111.667 80.5,111.833 84.5,112C 88.1325,112.149 91.4659,112.982 94.5,114.5 Z"/></g>
<g><path style="opacity:1" fill="#8ee3d0" d="M 94.5,114.5 C 102.826,115.607 110.826,117.941 118.5,121.5C 117.687,122.814 116.687,123.981 115.5,125C 111.969,126.596 108.636,128.43 105.5,130.5C 90.4549,123.536 74.7882,121.703 58.5,125C 53.6606,126.16 49.1606,127.993 45,130.5C 40.1093,128.154 35.9427,124.988 32.5,121C 37.3988,116.976 43.0655,114.809 49.5,114.5C 64.5016,111.897 79.5016,111.897 94.5,114.5 Z"/></g>
<g><path style="opacity:1" fill="#7fd7ca" d="M 63.5,136.5 C 70.175,136.666 76.8417,136.5 83.5,136C 85.9011,135.195 85.7344,134.362 83,133.5C 82.5172,132.552 82.3505,131.552 82.5,130.5C 76.4908,130.334 70.4908,130.501 64.5,131C 62.9559,131.29 61.6226,131.956 60.5,133C 61.8228,133.816 62.4894,134.983 62.5,136.5C 58.2314,136.266 54.2314,135.099 50.5,133C 57.418,129.063 64.918,127.563 73,128.5C 82.0901,127.476 90.5901,129.142 98.5,133.5C 86.9912,137.517 75.3245,138.517 63.5,136.5 Z"/></g>
<g><path style="opacity:1" fill="#82e9d2" d="M 63.5,136.5 C 63.1667,136.5 62.8333,136.5 62.5,136.5C 62.4894,134.983 61.8228,133.816 60.5,133C 61.6226,131.956 62.9559,131.29 64.5,131C 70.4908,130.501 76.4908,130.334 82.5,130.5C 82.3505,131.552 82.5172,132.552 83,133.5C 85.7344,134.362 85.9011,135.195 83.5,136C 76.8417,136.5 70.175,136.666 63.5,136.5 Z"/></g>
</svg>
